<svg width="27" height="49" viewBox="0 0 27 49" fill="none" xmlns="http://www.w3.org/2000/svg">
<rect id="Rectangle 20" x="11" y="47" width="5" height="2" fill="black"/>
<rect id="Rectangle 19" x="16.5" y="43.5" width="1" height="3" fill="black" stroke="black"/>
<rect id="Rectangle 18" x="9" y="43" width="2" height="4" fill="black"/>
<rect id="Rectangle 17" x="18" y="39" width="2" height="4" fill="black"/>
<rect id="Rectangle 16" x="7" y="39" width="2" height="4" fill="black"/>
<rect id="Rectangle 15" x="20" y="37" width="5" height="2" fill="black"/>
<rect id="Rectangle 14" x="2" y="37" width="5" height="2" fill="black"/>
<rect id="Rectangle 13" x="25" y="33" width="2" height="6" fill="black"/>
<rect id="Rectangle 12" y="33" width="2" height="6" fill="black"/>
<rect id="Rectangle 11" x="23" y="27" width="2" height="6" fill="black"/>
<rect id="Rectangle 10" x="2" y="27" width="2" height="6" fill="black"/>
<rect id="Rectangle 9" x="21" y="21" width="2" height="6" fill="black"/>
<rect id="Rectangle 8" x="4" y="21" width="2" height="6" fill="black"/>
<rect id="Rectangle 7" x="19" y="15" width="2" height="6" fill="black"/>
<rect id="Rectangle 6" x="6" y="15" width="2" height="6" fill="black"/>
<rect id="Rectangle 5" x="17" y="9" width="2" height="6" fill="black"/>
<rect id="Rectangle 4" x="8" y="9" width="2" height="6" fill="black"/>
<rect id="Rectangle 3" x="15" y="3" width="2" height="6" fill="black"/>
<rect id="Rectangle 2" x="10" y="3" width="2" height="6" fill="black"/>
<rect id="Rectangle 1" x="12" width="3" height="3" fill="black"/>
</svg>
